<svg xmlns:dc="http://purl.org/dc/elements/1.1/" xmlns:cc="http://creativecommons.org/ns#" xmlns:rdf="http://www.w3.org/1999/02/22-rdf-syntax-ns#" xmlns:svg="http://www.w3.org/2000/svg" xmlns="http://www.w3.org/2000/svg" xmlns:sodipodi="http://sodipodi.sourceforge.net/DTD/sodipodi-0.dtd" xmlns:inkscape="http://www.inkscape.org/namespaces/inkscape" version="1.1" viewBox="0 0 106.254 127.08375000000001" xml:space="preserve" x="0px" y="0px" width="40" height="47"><path d="m 7.298954,7.2763728 31.823467,0 0,-8.2802661 27.186857,0 0,8.2802661 c 11.01016,0 20.813316,0 31.823476,0 l 0,12.5304262 -90.8338,0 m 56.590233,-18.071572 -22.41434,0 0,5.44287 22.41434,0 z" style="" fill="#fff" stroke="none"/><path d="m 18.555515,21.769038 70.506211,0 0,79.961522 -70.506211,0 m 59.534213,-70.498871 -7.016578,0 0,63.201819 7.016578,0 z m -21.139764,0.05497 -7.016579,0 0,63.201816 7.016579,0 z m -21.139766,0.05497 -7.016578,0 0,63.201814 7.016578,0 z" style="" fill="#fff" fill-opacity="1"/></svg>